<?xml version="1.0" encoding="UTF-8"?>
<svg xmlns="http://www.w3.org/2000/svg" xmlns:xlink="http://www.w3.org/1999/xlink" width="25px" height="25px" viewBox="0 0 25 25" version="1.1">
<g id="surface1">
<path style=" stroke:none;fill-rule:nonzero;fill:rgb(0%,0%,0%);fill-opacity:1;" d="M 6.390625 0.0664062 C 5.910156 0.199219 5.460938 0.582031 5.214844 1.0625 C 5.101562 1.292969 5.101562 1.296875 5.089844 3.515625 L 5.074219 5.738281 L 5.179688 5.820312 C 5.316406 5.933594 5.527344 5.933594 5.667969 5.816406 L 5.785156 5.722656 L 5.8125 3.578125 C 5.832031 1.675781 5.84375 1.425781 5.917969 1.285156 C 6.035156 1.074219 6.320312 0.847656 6.5625 0.785156 C 6.710938 0.742188 8.507812 0.730469 13.136719 0.742188 L 19.507812 0.757812 L 19.53125 2.613281 C 19.554688 4.402344 19.5625 4.472656 19.664062 4.667969 C 19.722656 4.773438 19.855469 4.941406 19.953125 5.027344 C 20.316406 5.347656 20.296875 5.347656 22.304688 5.359375 L 24.121094 5.375 L 24.121094 14.417969 C 24.121094 23.109375 24.117188 23.472656 24.027344 23.660156 C 23.921875 23.902344 23.648438 24.136719 23.394531 24.214844 C 23.261719 24.246094 22.433594 24.265625 20.6875 24.265625 L 18.167969 24.265625 L 18.277344 24.03125 C 18.363281 23.847656 18.382812 23.714844 18.382812 23.339844 C 18.382812 22.617188 18.394531 22.632812 16.390625 20.613281 C 15.445312 19.667969 14.589844 18.832031 14.484375 18.757812 C 14.320312 18.652344 14.238281 18.628906 13.980469 18.628906 L 13.671875 18.621094 L 13 17.957031 L 13.246094 17.558594 C 13.691406 16.84375 13.976562 16.136719 14.191406 15.210938 C 14.320312 14.652344 14.320312 13.003906 14.195312 12.402344 C 13.609375 9.671875 11.597656 7.566406 8.9375 6.914062 C 6.519531 6.324219 4.003906 7.007812 2.25 8.738281 C 0.859375 10.117188 0.148438 11.824219 0.148438 13.789062 C 0.148438 14.628906 0.246094 15.28125 0.488281 16.015625 C 1.300781 18.492188 3.3125 20.253906 5.933594 20.785156 C 6.597656 20.917969 7.960938 20.90625 8.628906 20.761719 C 9.507812 20.570312 10.453125 20.183594 11.09375 19.753906 L 11.351562 19.578125 L 11.699219 19.925781 L 12.050781 20.273438 L 12.046875 20.550781 C 12.046875 20.703125 12.074219 20.882812 12.109375 20.945312 C 12.144531 21.015625 12.886719 21.785156 13.761719 22.664062 L 15.355469 24.265625 L 11.039062 24.265625 C 7.949219 24.265625 6.675781 24.253906 6.539062 24.214844 C 6.4375 24.179688 6.273438 24.089844 6.175781 24.011719 C 5.871094 23.753906 5.839844 23.652344 5.8125 22.71875 C 5.785156 21.933594 5.777344 21.871094 5.679688 21.773438 C 5.546875 21.636719 5.3125 21.628906 5.171875 21.757812 C 5.074219 21.84375 5.074219 21.882812 5.089844 22.777344 C 5.101562 23.636719 5.113281 23.726562 5.21875 23.941406 C 5.402344 24.304688 5.726562 24.632812 6.09375 24.8125 L 6.421875 24.976562 L 23.511719 24.976562 L 23.839844 24.8125 C 24.203125 24.632812 24.53125 24.3125 24.710938 23.941406 L 24.828125 23.707031 L 24.828125 5.101562 L 24.671875 4.785156 C 24.535156 4.507812 24.273438 4.222656 22.402344 2.363281 C 20.445312 0.410156 20.269531 0.25 19.996094 0.140625 L 19.703125 0.0234375 L 13.160156 0.015625 C 8.082031 0.0078125 6.566406 0.0195312 6.390625 0.0664062 Z M 23.585938 4.597656 C 23.585938 4.625 22.941406 4.636719 22.160156 4.636719 C 20.894531 4.636719 20.707031 4.628906 20.558594 4.550781 C 20.269531 4.410156 20.265625 4.375 20.265625 2.734375 L 20.265625 1.246094 L 21.925781 2.90625 C 22.835938 3.816406 23.585938 4.578125 23.585938 4.597656 Z M 8.429688 7.542969 C 9.742188 7.8125 10.894531 8.445312 11.816406 9.402344 C 12.695312 10.316406 13.28125 11.472656 13.5 12.714844 C 13.667969 13.671875 13.570312 14.917969 13.261719 15.835938 C 12.613281 17.761719 10.988281 19.335938 9.054688 19.898438 C 5.738281 20.863281 2.28125 19.082031 1.195312 15.84375 C 0.773438 14.585938 0.765625 13.035156 1.183594 11.792969 C 1.507812 10.820312 1.976562 10.074219 2.753906 9.296875 C 3.839844 8.210938 5.035156 7.644531 6.640625 7.449219 C 6.972656 7.410156 8.046875 7.464844 8.429688 7.542969 Z M 12.855469 18.835938 L 13.136719 19.121094 L 12.84375 19.410156 L 12.550781 19.695312 L 12.257812 19.410156 L 11.964844 19.121094 L 12.242188 18.835938 C 12.398438 18.679688 12.535156 18.554688 12.550781 18.554688 C 12.5625 18.554688 12.699219 18.679688 12.855469 18.835938 Z M 15.804688 21.101562 C 16.777344 22.078125 17.597656 22.9375 17.628906 23.011719 C 17.90625 23.773438 17.113281 24.527344 16.398438 24.175781 C 16.253906 24.105469 15.636719 23.519531 14.464844 22.34375 C 12.96875 20.847656 12.738281 20.605469 12.785156 20.527344 C 12.851562 20.40625 13.9375 19.335938 13.996094 19.335938 C 14.019531 19.335938 14.835938 20.132812 15.804688 21.101562 Z M 15.804688 21.101562 "/>
<path style=" stroke:none;fill-rule:nonzero;fill:rgb(0%,0%,0%);fill-opacity:1;" d="M 6.339844 8.226562 C 5.5625 8.355469 4.683594 8.707031 4.035156 9.144531 C 3.617188 9.421875 3.007812 10.019531 2.675781 10.46875 C 2.304688 10.964844 1.9375 11.714844 1.78125 12.304688 C 1.585938 13.046875 1.625 13.269531 1.957031 13.355469 C 2.1875 13.414062 2.320312 13.226562 2.460938 12.644531 C 2.910156 10.820312 4.320312 9.433594 6.175781 9.003906 C 6.457031 8.941406 6.757812 8.910156 7.226562 8.910156 C 7.964844 8.910156 8.417969 8.992188 9.027344 9.238281 C 10.472656 9.808594 11.558594 11.03125 11.972656 12.546875 C 12.070312 12.914062 12.085938 13.070312 12.082031 13.84375 C 12.082031 14.65625 12.070312 14.75 11.945312 15.160156 C 11.871094 15.398438 11.703125 15.804688 11.566406 16.058594 C 11.339844 16.5 11 16.992188 10.933594 16.992188 C 10.917969 16.992188 10.839844 16.902344 10.765625 16.796875 C 10.609375 16.566406 10.292969 16.347656 9.925781 16.210938 C 9.71875 16.132812 8.703125 15.917969 8.535156 15.917969 C 8.515625 15.917969 8.496094 15.816406 8.496094 15.691406 C 8.496094 15.488281 8.519531 15.4375 8.761719 15.179688 C 9.023438 14.898438 9.238281 14.515625 9.300781 14.21875 C 9.316406 14.128906 9.378906 14.039062 9.429688 14.007812 C 9.484375 13.980469 9.570312 13.886719 9.621094 13.804688 C 9.707031 13.660156 9.71875 13.550781 9.71875 12.558594 C 9.71875 11.570312 9.707031 11.453125 9.621094 11.277344 C 9.523438 11.082031 9.335938 10.925781 9.113281 10.839844 C 9.042969 10.816406 8.960938 10.730469 8.929688 10.660156 C 8.902344 10.582031 8.824219 10.457031 8.75 10.386719 C 8.496094 10.117188 8.453125 10.105469 7.183594 10.105469 C 6.117188 10.105469 5.988281 10.117188 5.742188 10.210938 C 5.390625 10.335938 5.035156 10.664062 4.859375 11.019531 L 4.710938 11.304688 L 4.699219 12.378906 C 4.6875 12.964844 4.691406 13.519531 4.710938 13.601562 C 4.726562 13.691406 4.824219 13.847656 4.933594 13.960938 C 5.039062 14.070312 5.128906 14.199219 5.128906 14.246094 C 5.128906 14.417969 5.410156 14.921875 5.65625 15.191406 C 5.882812 15.4375 5.910156 15.488281 5.910156 15.691406 C 5.910156 15.816406 5.902344 15.917969 5.898438 15.917969 C 5.796875 15.917969 4.976562 16.089844 4.691406 16.160156 C 4.21875 16.292969 3.96875 16.441406 3.695312 16.753906 L 3.476562 17 L 3.257812 16.6875 C 2.84375 16.101562 2.511719 15.359375 2.417969 14.808594 C 2.367188 14.515625 2.230469 14.355469 2.027344 14.355469 C 1.910156 14.355469 1.835938 14.390625 1.761719 14.480469 C 1.632812 14.648438 1.636719 14.722656 1.78125 15.28125 C 2.238281 16.972656 3.507812 18.394531 5.148438 19.042969 C 5.738281 19.277344 6.261719 19.382812 6.9375 19.417969 C 8.207031 19.476562 9.3125 19.179688 10.34375 18.492188 C 11.625 17.625 12.484375 16.328125 12.773438 14.808594 C 12.894531 14.160156 12.847656 12.976562 12.675781 12.359375 C 12.40625 11.402344 11.964844 10.605469 11.300781 9.910156 C 10.507812 9.085938 9.5625 8.550781 8.449219 8.296875 C 7.890625 8.167969 6.894531 8.132812 6.339844 8.226562 Z M 8.277344 11.035156 C 8.378906 11.382812 8.472656 11.460938 8.851562 11.542969 C 8.960938 11.566406 8.984375 11.601562 8.984375 11.71875 L 8.984375 11.863281 L 8.480469 11.859375 C 7.925781 11.859375 7.953125 11.851562 7.347656 12.125 L 6.914062 12.320312 L 5.421875 12.367188 L 5.421875 11.957031 C 5.425781 11.382812 5.550781 11.117188 5.933594 10.917969 C 6.054688 10.847656 6.253906 10.839844 7.152344 10.847656 L 8.222656 10.863281 Z M 8.984375 12.976562 C 8.984375 13.34375 8.980469 13.359375 8.820312 13.484375 C 8.6875 13.589844 8.648438 13.667969 8.617188 13.851562 C 8.546875 14.355469 8.265625 14.753906 7.84375 14.980469 C 7.480469 15.171875 6.972656 15.164062 6.582031 14.976562 C 6.425781 14.898438 6.226562 14.746094 6.128906 14.632812 C 5.972656 14.453125 5.914062 14.3125 5.761719 13.734375 C 5.726562 13.589844 5.667969 13.503906 5.566406 13.441406 C 5.464844 13.382812 5.421875 13.320312 5.421875 13.226562 L 5.421875 13.101562 L 6.214844 13.070312 C 7.046875 13.042969 7.328125 12.984375 7.726562 12.75 C 7.945312 12.617188 8.242188 12.566406 8.671875 12.585938 L 8.984375 12.605469 Z M 7.773438 16.054688 C 7.792969 16.289062 7.769531 16.316406 7.523438 16.402344 C 7.289062 16.480469 7.015625 16.46875 6.78125 16.375 C 6.597656 16.296875 6.585938 16.285156 6.613281 16.148438 C 6.625 16.070312 6.640625 15.964844 6.640625 15.921875 C 6.640625 15.855469 6.714844 15.84375 7.199219 15.84375 L 7.753906 15.84375 Z M 6.074219 16.816406 C 6.417969 17.074219 6.699219 17.164062 7.203125 17.164062 C 7.582031 17.164062 7.679688 17.144531 7.933594 17.027344 C 8.097656 16.949219 8.285156 16.832031 8.359375 16.765625 L 8.488281 16.640625 L 9.039062 16.746094 C 9.671875 16.871094 9.882812 16.941406 10.078125 17.128906 C 10.234375 17.273438 10.382812 17.578125 10.316406 17.621094 C 9.628906 18.101562 9.335938 18.261719 8.8125 18.441406 C 7.621094 18.847656 6.175781 18.757812 5.078125 18.21875 C 4.703125 18.03125 4.101562 17.605469 4.101562 17.527344 C 4.101562 17.402344 4.292969 17.144531 4.453125 17.039062 C 4.640625 16.921875 4.847656 16.859375 5.421875 16.742188 C 5.648438 16.699219 5.839844 16.65625 5.84375 16.65625 C 5.855469 16.648438 5.957031 16.722656 6.074219 16.816406 Z M 6.074219 16.816406 "/>
<path style=" stroke:none;fill-rule:nonzero;fill:rgb(0%,0%,0%);fill-opacity:1;" d="M 7.714844 2.5 C 7.398438 2.714844 7.347656 2.859375 7.335938 3.734375 C 7.308594 4.8125 7.398438 5.078125 7.832031 5.277344 C 8.023438 5.367188 8.238281 5.371094 11.769531 5.371094 L 15.507812 5.371094 L 15.722656 5.257812 C 16.152344 5.042969 16.246094 4.722656 16.203125 3.570312 C 16.175781 2.878906 16.125 2.71875 15.859375 2.527344 L 15.699219 2.417969 L 11.789062 2.402344 L 7.875 2.390625 Z M 15.46875 3.785156 C 15.472656 4.128906 15.46875 4.46875 15.453125 4.53125 L 15.429688 4.636719 L 11.753906 4.628906 L 8.082031 4.613281 L 8.066406 3.929688 C 8.0625 3.558594 8.066406 3.222656 8.078125 3.1875 C 8.097656 3.132812 8.792969 3.125 11.777344 3.132812 L 15.453125 3.148438 Z M 15.46875 3.785156 "/>
<path style=" stroke:none;fill-rule:nonzero;fill:rgb(0%,0%,0%);fill-opacity:1;" d="M 15.578125 9.617188 C 15.429688 9.765625 15.445312 10.023438 15.605469 10.152344 C 15.734375 10.253906 15.773438 10.253906 18.949219 10.253906 C 21.203125 10.253906 22.199219 10.238281 22.28125 10.199219 C 22.398438 10.144531 22.511719 9.96875 22.511719 9.84375 C 22.511719 9.808594 22.464844 9.722656 22.40625 9.648438 L 22.308594 9.519531 L 18.988281 9.519531 C 15.738281 9.519531 15.675781 9.519531 15.578125 9.617188 Z M 15.578125 9.617188 "/>
<path style=" stroke:none;fill-rule:nonzero;fill:rgb(0%,0%,0%);fill-opacity:1;" d="M 15.578125 11.816406 C 15.429688 11.960938 15.445312 12.222656 15.605469 12.347656 C 15.734375 12.449219 15.773438 12.449219 18.996094 12.449219 C 22.027344 12.449219 22.261719 12.445312 22.359375 12.363281 C 22.414062 12.320312 22.476562 12.210938 22.492188 12.125 C 22.515625 11.996094 22.496094 11.941406 22.398438 11.84375 L 22.269531 11.71875 L 18.96875 11.71875 C 15.738281 11.71875 15.675781 11.71875 15.578125 11.816406 Z M 15.578125 11.816406 "/>
<path style=" stroke:none;fill-rule:nonzero;fill:rgb(0%,0%,0%);fill-opacity:1;" d="M 15.605469 14.019531 C 15.445312 14.144531 15.429688 14.402344 15.578125 14.550781 C 15.675781 14.648438 15.738281 14.648438 18.96875 14.648438 L 22.269531 14.648438 L 22.398438 14.519531 C 22.496094 14.421875 22.515625 14.371094 22.492188 14.242188 C 22.476562 14.15625 22.414062 14.046875 22.359375 14 C 22.261719 13.921875 22.027344 13.914062 18.996094 13.914062 C 15.773438 13.914062 15.734375 13.914062 15.605469 14.019531 Z M 15.605469 14.019531 "/>
<path style=" stroke:none;fill-rule:nonzero;fill:rgb(0%,0%,0%);fill-opacity:1;" d="M 15.722656 16.148438 C 15.558594 16.210938 15.480469 16.328125 15.480469 16.507812 C 15.480469 16.84375 15.46875 16.84375 17.417969 16.84375 C 19.121094 16.84375 19.136719 16.84375 19.238281 16.738281 C 19.359375 16.605469 19.367188 16.402344 19.242188 16.253906 L 19.152344 16.136719 L 17.472656 16.128906 C 16.554688 16.121094 15.761719 16.132812 15.722656 16.148438 Z M 15.722656 16.148438 "/>
</g>
</svg>
