<?xml version="1.0" encoding="UTF-8"?>
<svg xmlns="http://www.w3.org/2000/svg" xmlns:xlink="http://www.w3.org/1999/xlink" width="25px" height="25px" viewBox="0 0 25 25" version="1.1">
<g id="surface1">
<path style=" stroke:none;fill-rule:nonzero;fill:rgb(0%,0%,0%);fill-opacity:1;" d="M 5.15625 15.148438 L 5.15625 0.917969 C 5.15625 0.578125 5.429688 0.308594 5.765625 0.308594 L 19.3125 0.308594 C 21.90625 0.308594 24.027344 2.425781 24.027344 5.023438 L 24.027344 19.902344 C 24.027344 20.238281 23.753906 20.511719 23.417969 20.511719 L 10.519531 20.511719 C 10.214844 22.898438 8.175781 24.691406 5.765625 24.691406 C 3.121094 24.691406 0.972656 22.546875 0.972656 19.902344 C 0.972656 17.492188 2.769531 15.453125 5.15625 15.148438 Z M 3.410156 20.882812 C 2.84375 20.316406 3.707031 19.457031 4.273438 20.023438 L 5.101562 20.851562 L 7.179688 17.660156 C 7.613281 16.988281 8.632812 17.652344 8.199219 18.320312 L 5.738281 22.101562 C 5.546875 22.457031 5.058594 22.535156 4.769531 22.242188 Z M 10.519531 19.292969 L 22.808594 19.292969 L 22.808594 5.023438 C 22.808594 3.101562 21.234375 1.527344 19.3125 1.527344 L 6.375 1.527344 L 6.375 15.148438 C 8.535156 15.421875 10.246094 17.132812 10.519531 19.292969 Z M 5.765625 16.328125 C 3.792969 16.328125 2.191406 17.929688 2.191406 19.902344 C 2.191406 21.875 3.792969 23.472656 5.765625 23.472656 C 7.738281 23.472656 9.335938 21.875 9.335938 19.902344 C 9.335938 17.929688 7.738281 16.328125 5.765625 16.328125 Z M 18.414062 8.824219 L 21.132812 8.824219 C 21.46875 8.824219 21.742188 9.097656 21.742188 9.433594 L 21.742188 15.847656 C 21.742188 16.183594 21.46875 16.457031 21.132812 16.457031 L 18.414062 16.457031 C 18.078125 16.457031 17.804688 16.183594 17.804688 15.847656 L 17.804688 9.433594 C 17.804688 9.097656 18.078125 8.824219 18.414062 8.824219 Z M 20.523438 10.042969 L 19.023438 10.042969 L 19.023438 15.238281 L 20.523438 15.238281 Z M 15.488281 5.21875 C 14.6875 5.21875 14.6875 4 15.488281 4 L 20.105469 4 C 20.910156 4 20.910156 5.21875 20.105469 5.21875 Z M 15.488281 7.273438 C 14.6875 7.273438 14.6875 6.054688 15.488281 6.054688 L 20.105469 6.054688 C 20.910156 6.054688 20.910156 7.273438 20.105469 7.273438 Z M 7.945312 13.738281 C 7.144531 13.738281 7.144531 12.519531 7.945312 12.519531 L 16.359375 12.519531 C 17.164062 12.519531 17.164062 13.738281 16.359375 13.738281 Z M 7.945312 11.992188 C 7.144531 11.992188 7.144531 10.773438 7.945312 10.773438 L 16.359375 10.773438 C 17.164062 10.773438 17.164062 11.992188 16.359375 11.992188 Z M 7.945312 10.25 C 7.144531 10.25 7.144531 9.03125 7.945312 9.03125 L 14 9.03125 C 14.800781 9.03125 14.800781 10.25 14 10.25 Z M 8.074219 2.769531 L 12.589844 2.769531 C 12.925781 2.769531 13.199219 3.042969 13.199219 3.378906 L 13.199219 7.894531 C 13.199219 8.230469 12.925781 8.503906 12.589844 8.503906 L 8.074219 8.503906 C 7.738281 8.503906 7.464844 8.230469 7.464844 7.894531 L 7.464844 3.378906 C 7.464844 3.042969 7.738281 2.769531 8.074219 2.769531 Z M 11.980469 3.988281 L 8.683594 3.988281 L 8.683594 7.285156 L 11.980469 7.285156 Z M 11.980469 3.988281 "/>
</g>
</svg>
