<?xml version="1.0" encoding="UTF-8"?>
<svg xmlns="http://www.w3.org/2000/svg" xmlns:xlink="http://www.w3.org/1999/xlink" width="21px" height="21px" viewBox="0 0 21 21" version="1.1">
<g id="surface1">
<path style=" stroke:none;fill-rule:nonzero;fill:rgb(0%,0%,0%);fill-opacity:1;" d="M 8.378906 1.359375 C 7.289062 1.484375 6.183594 1.882812 5.25 2.488281 C 3.226562 3.800781 1.972656 6.109375 1.96875 8.523438 C 1.96875 10.875 3.125 13.238281 4.9375 14.578125 L 5.242188 14.800781 L 5.222656 15 C 5.132812 15.921875 4.75 17.144531 4.164062 18.410156 C 3.957031 18.847656 3.929688 18.941406 3.949219 19.097656 C 4.011719 19.65625 4.699219 19.882812 5.078125 19.472656 C 5.226562 19.3125 5.765625 18.054688 6.03125 17.265625 C 6.386719 16.195312 6.605469 15.015625 6.554688 14.414062 C 6.53125 14.117188 6.453125 14.023438 6 13.714844 C 5.097656 13.109375 4.457031 12.367188 3.957031 11.339844 C 3.039062 9.46875 3.0625 7.417969 4.023438 5.679688 C 4.300781 5.175781 4.582031 4.808594 5.019531 4.363281 C 6.230469 3.15625 7.761719 2.566406 9.496094 2.636719 C 11.496094 2.71875 13.042969 3.460938 14.054688 4.824219 C 14.660156 5.640625 15.003906 6.589844 15.085938 7.679688 C 15.125 8.199219 14.976562 7.96875 16.476562 9.769531 C 17.089844 10.507812 17.597656 11.125 17.597656 11.132812 C 17.597656 11.144531 17.128906 11.15625 16.554688 11.164062 C 15.40625 11.175781 15.410156 11.175781 15.199219 11.460938 C 15.117188 11.566406 15.113281 11.636719 15.09375 13.117188 C 15.078125 14.257812 15.0625 14.6875 15.019531 14.753906 C 14.992188 14.800781 14.902344 14.898438 14.820312 14.957031 L 14.671875 15.074219 L 13.449219 15.09375 C 12.296875 15.113281 12.222656 15.117188 12.117188 15.199219 C 11.835938 15.40625 11.832031 15.425781 11.835938 16.355469 C 11.839844 17.050781 11.859375 17.285156 11.929688 17.625 C 12.089844 18.386719 12.476562 19.339844 12.710938 19.53125 C 13.125 19.882812 13.78125 19.578125 13.78125 19.03125 C 13.78125 18.960938 13.691406 18.695312 13.582031 18.445312 C 13.289062 17.796875 13.125 17.097656 13.125 16.542969 L 13.125 16.40625 L 13.894531 16.40625 C 14.734375 16.40625 14.964844 16.371094 15.347656 16.175781 C 15.640625 16.027344 16 15.671875 16.15625 15.386719 C 16.382812 14.957031 16.40625 14.78125 16.40625 13.570312 L 16.40625 12.472656 L 17.257812 12.460938 C 18.019531 12.449219 18.128906 12.441406 18.296875 12.363281 C 18.566406 12.234375 18.765625 12.042969 18.894531 11.78125 C 19.046875 11.46875 19.054688 10.988281 18.917969 10.714844 C 18.863281 10.617188 18.28125 9.890625 17.621094 9.09375 L 16.417969 7.648438 L 16.371094 7.21875 C 16.074219 4.625 14.4375 2.605469 11.941406 1.742188 C 10.914062 1.390625 9.449219 1.234375 8.378906 1.359375 Z M 8.378906 1.359375 "/>
<path style=" stroke:none;fill-rule:nonzero;fill:rgb(0%,0%,0%);fill-opacity:1;" d="M 10.234375 4.652344 C 9.847656 4.820312 9.726562 5.34375 9.996094 5.664062 C 10.144531 5.835938 10.324219 5.90625 10.628906 5.90625 L 10.882812 5.90625 L 10.652344 6.144531 C 10.332031 6.480469 10.082031 6.882812 9.617188 7.800781 C 9.109375 8.804688 8.847656 9.210938 8.453125 9.597656 C 7.875 10.171875 7.226562 10.421875 6.136719 10.496094 C 5.625 10.527344 5.53125 10.566406 5.355469 10.804688 C 5.238281 10.964844 5.238281 11.347656 5.355469 11.507812 C 5.578125 11.808594 5.839844 11.863281 6.613281 11.769531 C 7.851562 11.628906 8.710938 11.226562 9.464844 10.441406 C 9.894531 9.996094 10.28125 9.398438 10.769531 8.4375 C 11.222656 7.542969 11.375 7.296875 11.621094 7.027344 L 11.792969 6.835938 L 11.8125 7.152344 C 11.835938 7.484375 11.898438 7.609375 12.117188 7.769531 C 12.199219 7.832031 12.289062 7.855469 12.46875 7.855469 C 12.726562 7.855469 12.859375 7.789062 13.019531 7.570312 C 13.101562 7.464844 13.105469 7.40625 13.105469 6.234375 C 13.105469 5.0625 13.101562 5.003906 13.019531 4.898438 C 12.972656 4.835938 12.882812 4.746094 12.820312 4.699219 C 12.714844 4.617188 12.648438 4.613281 11.535156 4.605469 C 10.617188 4.597656 10.328125 4.605469 10.234375 4.652344 Z M 10.234375 4.652344 "/>
<path style=" stroke:none;fill-rule:nonzero;fill:rgb(0%,0%,0%);fill-opacity:1;" d="M 5.640625 5.308594 C 5.472656 5.382812 5.300781 5.589844 5.265625 5.761719 C 5.214844 6.054688 5.273438 6.1875 5.632812 6.550781 L 5.964844 6.890625 L 5.632812 7.230469 C 5.273438 7.597656 5.214844 7.726562 5.269531 8.027344 C 5.308594 8.226562 5.554688 8.472656 5.753906 8.511719 C 6.054688 8.566406 6.183594 8.507812 6.550781 8.148438 L 6.890625 7.816406 L 7.230469 8.148438 C 7.597656 8.507812 7.726562 8.566406 8.027344 8.511719 C 8.226562 8.472656 8.472656 8.226562 8.511719 8.027344 C 8.566406 7.726562 8.507812 7.597656 8.148438 7.230469 L 7.816406 6.890625 L 8.148438 6.550781 C 8.507812 6.183594 8.566406 6.054688 8.511719 5.753906 C 8.472656 5.554688 8.226562 5.308594 8.027344 5.269531 C 7.726562 5.214844 7.597656 5.273438 7.230469 5.632812 L 6.890625 5.964844 L 6.570312 5.652344 C 6.164062 5.246094 5.957031 5.167969 5.640625 5.308594 Z M 5.640625 5.308594 "/>
<path style=" stroke:none;fill-rule:nonzero;fill:rgb(0%,0%,0%);fill-opacity:1;" d="M 11.753906 9.882812 C 11.496094 9.949219 11.128906 10.171875 10.945312 10.363281 C 10.855469 10.464844 10.722656 10.667969 10.652344 10.820312 C 10.53125 11.070312 10.519531 11.132812 10.519531 11.488281 C 10.519531 11.859375 10.527344 11.894531 10.671875 12.191406 C 10.855469 12.5625 11.09375 12.792969 11.476562 12.972656 C 11.726562 13.09375 11.789062 13.105469 12.140625 13.105469 C 12.492188 13.105469 12.554688 13.09375 12.804688 12.972656 C 13.1875 12.792969 13.425781 12.5625 13.609375 12.191406 C 13.753906 11.894531 13.761719 11.859375 13.761719 11.484375 C 13.761719 11.109375 13.753906 11.074219 13.609375 10.777344 C 13.332031 10.222656 12.839844 9.890625 12.230469 9.859375 C 12.058594 9.851562 11.84375 9.863281 11.753906 9.882812 Z M 12.367188 11.257812 C 12.570312 11.460938 12.429688 11.8125 12.140625 11.8125 C 11.972656 11.8125 11.8125 11.652344 11.8125 11.484375 C 11.8125 11.316406 11.972656 11.15625 12.140625 11.15625 C 12.21875 11.15625 12.304688 11.191406 12.367188 11.257812 Z M 12.367188 11.257812 "/>
</g>
</svg>
